<svg width="23" height="23" viewBox="0 0 23 23" fill="none" xmlns="http://www.w3.org/2000/svg">
<path d="M3.33984 6.00006H5.17318H19.8398" stroke="#FF0000" stroke-width="2" stroke-linecap="round" stroke-linejoin="round"/>
<path d="M18.0062 6.00004V18.8334C18.0062 19.3196 17.813 19.7859 17.4692 20.1297C17.1254 20.4736 16.6591 20.6667 16.1729 20.6667H7.00618C6.51995 20.6667 6.05364 20.4736 5.70982 20.1297C5.36601 19.7859 5.17285 19.3196 5.17285 18.8334V6.00004M7.92285 6.00004V4.16671C7.92285 3.68048 8.11601 3.21416 8.45982 2.87034C8.80364 2.52653 9.26995 2.33337 9.75618 2.33337H13.4229C13.9091 2.33337 14.3754 2.52653 14.7192 2.87034C15.063 3.21416 15.2562 3.68048 15.2562 4.16671V6.00004" stroke="#FF0000" stroke-width="2" stroke-linecap="round" stroke-linejoin="round"/>
<path d="M9.75684 10.5834V16.0834" stroke="#FF0000" stroke-width="2" stroke-linecap="round" stroke-linejoin="round"/>
<path d="M13.4229 10.5834V16.0834" stroke="#FF0000" stroke-width="2" stroke-linecap="round" stroke-linejoin="round"/>
</svg>
