<svg width="25" height="22" viewBox="0 0 25 22" fill="none" xmlns="http://www.w3.org/2000/svg">
<path d="M22.1113 2.84784C21.5417 2.27801 20.8655 1.82597 20.1212 1.51756C19.3768 1.20915 18.5791 1.05042 17.7734 1.05042C16.9677 1.05042 16.1699 1.20915 15.4256 1.51756C14.6813 1.82597 14.005 2.27801 13.4354 2.84784L12.2534 4.0299L11.0713 2.84784C9.92083 1.69735 8.36043 1.05101 6.73339 1.05101C5.10635 1.05101 3.54595 1.69735 2.39546 2.84784C1.24497 3.99833 0.598633 5.55873 0.598633 7.18577C0.598633 8.81281 1.24497 10.3732 2.39546 11.5237L3.57752 12.7058L12.2534 21.3816L20.9292 12.7058L22.1113 11.5237C22.6811 10.9541 23.1332 10.2779 23.4416 9.53356C23.75 8.78924 23.9087 7.99145 23.9087 7.18577C23.9087 6.38009 23.75 5.5823 23.4416 4.83799C23.1332 4.09367 22.6811 3.41741 22.1113 2.84784Z" fill="#EB5757" stroke="#EB5757" stroke-width="1.08917" stroke-linecap="round" stroke-linejoin="round"/>
</svg>
